<?xml version="1.0" encoding="UTF-8"?>
<!-- Created with Inkscape (http://www.inkscape.org/) -->
<svg width="113.35" height="97.5" version="1.1" viewBox="0 0 113.35 97.5" xmlns="http://www.w3.org/2000/svg">
 <g transform="translate(-15.544 -9.3239)">
  <path d="m40.524 105.57c-0.25124-0.6875-0.57462-20.527-0.71862-44.087l-0.26181-42.837-2.8058-2.4127c-1.9596-1.6851-4.0184-2.4127-6.8269-2.4127-3.1111 0-4.6827 0.66154-6.9442 2.9231-2.3792 2.3792-2.9231 3.7746-2.9231 7.5v4.5769h8.5c7.8805 0 8.5 0.14824 8.5 2.0338 0 1.9366-0.51402 2.0203-10.75 1.75l-10.75-0.28383 0.08128-6.7855c0.08758-7.3116 1.4574-10.161 6.8038-14.153 2.6673-1.9914 3.968-2.0618 38.115-2.0618 34.147 0 35.448 0.0704 38.115 2.0618 1.5188 1.134 3.6893 3.3039 4.8233 4.8221 1.9936 2.6691 2.0713 4.1383 2.3506 44.438 0.15886 22.923 0.0378 42.69-0.26905 43.928l-0.5579 2.25h-32.012c-24.7 0-32.117-0.28554-32.469-1.25zm60.52-44.827v-41.077l-5.8462-5.8462h-54.205l1.5257 2.9503c1.2949 2.504 1.5257 9.1602 1.5257 44v41.05h57zm-23.62 23.625c-1.0099-2.6317 0.66315-3.5479 6.479-3.5479 6.1855 0 8.8734 1.4126 6.9948 3.6762-0.68476 0.82509-3.3247 1.3238-7.0076 1.3238-4.2433 0-6.066-0.40933-6.4662-1.4521zm-22.276-13.462c-0.76764-0.48607-1.1193-1.6042-0.78138-2.4847 0.53175-1.3857 3.0302-1.6009 18.587-1.6009 18.34 0 21.614 0.68118 17.552 3.6517-1.3679 1.0002-5.9897 1.3443-17.903 1.333-8.8324-8e-3 -16.687-0.413-17.455-0.89907zm-0.34421-14.235c-0.57833-0.35699-0.77506-1.3695-0.43718-2.25 0.53167-1.3855 3.0262-1.6009 18.539-1.6009 15.206 0 18.014 0.23319 18.515 1.5378 0.32931 0.85816-0.0368 1.7784-0.82843 2.0822-2.0592 0.79021-34.542 0.99975-35.788 0.23086zm15.421-13.626c-14.829-0.24999-16.288-0.43256-15.986-2 0.30024-1.559 2.11-1.7249 18.818-1.7249 15.352 0 18.486 0.24215 18.486 1.428 0 0.78543-1.125 1.6854-2.5 2s-9.8433 0.44815-18.818 0.29685zm42.322 59.959-2.5253-3.816 0.52224-83.868h11l0.32068 3.3482c0.26418 2.7583 0.66366 3.2584 2.2676 2.839 1.0708-0.28003 2.6244 0.16839 3.4525 0.99648 1.2465 1.2465 1.4586 4.4576 1.2324 18.661-0.26114 16.398-0.36155 17.155-2.2732 17.155-1.9067 0-2.0128-0.75826-2.2748-16.25-0.16408-9.7037-0.66765-16.25-1.25-16.25-0.61592 0-0.97523 13.52-0.97523 36.696v36.696l-2.636 3.8038c-1.4498 2.0921-3.0184 3.8038-3.4858 3.8038-0.4674 0-1.9862-1.7172-3.3751-3.816zm4.4969-25.184c0-16.933-0.28788-22-1.25-22-0.96799-4e-5 -1.1982 4.7942-1.0205 21.25 0.12622 11.688 0.23872 21.588 0.25 22 0.0113 0.4125 0.47052 0.75 1.0205 0.75 0.63636 0 1-8 1-22zm0-39.5c0-6.9091-0.41-12.5-0.91667-12.5-0.50416 0-1.0667 0.44118-1.25 0.9804-0.75354 2.2163 0.36043 24.02 1.2272 24.02 0.53584 0 0.93946-5.3704 0.93946-12.5zm0-18c0-0.825-0.45-1.5-1-1.5s-1 0.675-1 1.5 0.45 1.5 1 1.5 1-0.675 1-1.5z"/>
 </g>
</svg>
